<mxfile host="app.diagrams.net" modified="2024-08-30T09:28:13.682Z" agent="Mozilla/5.0 (Macintosh; Intel Mac OS X 10_15_7) AppleWebKit/537.36 (KHTML, like Gecko) Chrome/127.0.0.0 Safari/537.36" etag="LLSvL0gbI8_e5np7Niis" version="24.6.5" type="device">
  <diagram name="Simple architecture" id="oTdZrRDxeM_kzWt5eh7-">
    <mxGraphModel dx="1194" dy="1715" grid="1" gridSize="10" guides="1" tooltips="1" connect="1" arrows="1" fold="1" page="1" pageScale="1" pageWidth="850" pageHeight="1100" math="0" shadow="0">
      <root>
        <mxCell id="0" />
        <mxCell id="1" parent="0" />
        <mxCell id="5g65gb1R4huNtyx6foxI-14" style="edgeStyle=orthogonalEdgeStyle;rounded=0;orthogonalLoop=1;jettySize=auto;html=1;entryX=0;entryY=0.5;entryDx=0;entryDy=0;shape=flexArrow;strokeWidth=1;endSize=2;startSize=2;fillColor=#FFCCCC;" edge="1" parent="1" source="5g65gb1R4huNtyx6foxI-1" target="5g65gb1R4huNtyx6foxI-13">
          <mxGeometry relative="1" as="geometry" />
        </mxCell>
        <mxCell id="5g65gb1R4huNtyx6foxI-15" value="Publish message" style="edgeLabel;html=1;align=center;verticalAlign=middle;resizable=0;points=[];" vertex="1" connectable="0" parent="5g65gb1R4huNtyx6foxI-14">
          <mxGeometry x="0.529" y="4" relative="1" as="geometry">
            <mxPoint as="offset" />
          </mxGeometry>
        </mxCell>
        <mxCell id="5g65gb1R4huNtyx6foxI-1" value="&lt;div&gt;Desktop/Web&lt;/div&gt;UI&lt;div&gt;&lt;br&gt;&lt;/div&gt;" style="rounded=1;whiteSpace=wrap;html=1;fillColor=#d5e8d4;strokeColor=#82b366;" vertex="1" parent="1">
          <mxGeometry x="200" y="140" width="120" height="60" as="geometry" />
        </mxCell>
        <mxCell id="5g65gb1R4huNtyx6foxI-3" style="edgeStyle=orthogonalEdgeStyle;rounded=0;orthogonalLoop=1;jettySize=auto;html=1;entryX=0;entryY=0.5;entryDx=0;entryDy=0;shape=flexArrow;strokeWidth=1;endSize=2;startSize=2;fillColor=#FFCCCC;" edge="1" parent="1" source="5g65gb1R4huNtyx6foxI-2" target="5g65gb1R4huNtyx6foxI-1">
          <mxGeometry relative="1" as="geometry" />
        </mxCell>
        <mxCell id="5g65gb1R4huNtyx6foxI-6" value="Feed" style="edgeLabel;html=1;align=center;verticalAlign=middle;resizable=0;points=[];" vertex="1" connectable="0" parent="5g65gb1R4huNtyx6foxI-3">
          <mxGeometry x="-0.1077" relative="1" as="geometry">
            <mxPoint as="offset" />
          </mxGeometry>
        </mxCell>
        <mxCell id="5g65gb1R4huNtyx6foxI-2" value="Feeder" style="shape=umlActor;verticalLabelPosition=bottom;verticalAlign=top;html=1;outlineConnect=0;" vertex="1" parent="1">
          <mxGeometry x="40" y="140" width="30" height="60" as="geometry" />
        </mxCell>
        <mxCell id="5g65gb1R4huNtyx6foxI-4" value="&lt;div&gt;Scores&lt;/div&gt;DB" style="shape=cylinder3;whiteSpace=wrap;html=1;boundedLbl=1;backgroundOutline=1;size=15;fillColor=#f8cecc;strokeColor=#b85450;" vertex="1" parent="1">
          <mxGeometry x="620" y="20" width="60" height="80" as="geometry" />
        </mxCell>
        <mxCell id="5g65gb1R4huNtyx6foxI-5" style="edgeStyle=orthogonalEdgeStyle;rounded=0;orthogonalLoop=1;jettySize=auto;html=1;entryX=0;entryY=0.5;entryDx=0;entryDy=0;entryPerimeter=0;shape=flexArrow;strokeWidth=1;endSize=2;startSize=2;fillColor=#FFCCCC;" edge="1" parent="1" source="5g65gb1R4huNtyx6foxI-1" target="5g65gb1R4huNtyx6foxI-4">
          <mxGeometry relative="1" as="geometry" />
        </mxCell>
        <mxCell id="5g65gb1R4huNtyx6foxI-7" value="Scores are stored" style="edgeLabel;html=1;align=center;verticalAlign=middle;resizable=0;points=[];" vertex="1" connectable="0" parent="5g65gb1R4huNtyx6foxI-5">
          <mxGeometry y="4" relative="1" as="geometry">
            <mxPoint as="offset" />
          </mxGeometry>
        </mxCell>
        <mxCell id="5g65gb1R4huNtyx6foxI-21" style="edgeStyle=orthogonalEdgeStyle;rounded=0;orthogonalLoop=1;jettySize=auto;html=1;entryX=0;entryY=0.5;entryDx=0;entryDy=0;shape=flexArrow;strokeWidth=1;endSize=2;startSize=2;fillColor=#FFCCCC;" edge="1" parent="1" source="5g65gb1R4huNtyx6foxI-8" target="5g65gb1R4huNtyx6foxI-20">
          <mxGeometry relative="1" as="geometry" />
        </mxCell>
        <mxCell id="5g65gb1R4huNtyx6foxI-22" value="Live match updates" style="edgeLabel;html=1;align=center;verticalAlign=middle;resizable=0;points=[];" vertex="1" connectable="0" parent="5g65gb1R4huNtyx6foxI-21">
          <mxGeometry x="-0.0114" y="1" relative="1" as="geometry">
            <mxPoint as="offset" />
          </mxGeometry>
        </mxCell>
        <mxCell id="5g65gb1R4huNtyx6foxI-8" value="Cricbuzz&lt;div&gt;Web&lt;/div&gt;" style="rounded=1;whiteSpace=wrap;html=1;fillColor=#d5e8d4;strokeColor=#82b366;" vertex="1" parent="1">
          <mxGeometry x="200" y="290" width="120" height="60" as="geometry" />
        </mxCell>
        <mxCell id="5g65gb1R4huNtyx6foxI-10" style="edgeStyle=orthogonalEdgeStyle;rounded=0;orthogonalLoop=1;jettySize=auto;html=1;entryX=0;entryY=0.5;entryDx=0;entryDy=0;" edge="1" parent="1" source="5g65gb1R4huNtyx6foxI-9" target="5g65gb1R4huNtyx6foxI-8">
          <mxGeometry relative="1" as="geometry" />
        </mxCell>
        <mxCell id="5g65gb1R4huNtyx6foxI-9" value="Ashrith" style="shape=umlActor;verticalLabelPosition=bottom;verticalAlign=top;html=1;outlineConnect=0;" vertex="1" parent="1">
          <mxGeometry x="40" y="290" width="30" height="60" as="geometry" />
        </mxCell>
        <mxCell id="5g65gb1R4huNtyx6foxI-13" value="Kafka" style="shape=process;whiteSpace=wrap;html=1;backgroundOutline=1;fillColor=#f8cecc;strokeColor=#b85450;" vertex="1" parent="1">
          <mxGeometry x="600" y="170" width="120" height="60" as="geometry" />
        </mxCell>
        <mxCell id="5g65gb1R4huNtyx6foxI-19" value="Populated" style="edgeStyle=orthogonalEdgeStyle;rounded=0;orthogonalLoop=1;jettySize=auto;html=1;shape=flexArrow;strokeWidth=1;endSize=2;startSize=2;fillColor=#FFCCCC;" edge="1" parent="1" source="5g65gb1R4huNtyx6foxI-16" target="5g65gb1R4huNtyx6foxI-20">
          <mxGeometry relative="1" as="geometry">
            <mxPoint x="600" y="420" as="targetPoint" />
          </mxGeometry>
        </mxCell>
        <mxCell id="5g65gb1R4huNtyx6foxI-16" value="Live Match Consumer&amp;nbsp;" style="rounded=1;whiteSpace=wrap;html=1;fillColor=#d5e8d4;strokeColor=#82b366;" vertex="1" parent="1">
          <mxGeometry x="720" y="350" width="120" height="60" as="geometry" />
        </mxCell>
        <mxCell id="5g65gb1R4huNtyx6foxI-17" style="edgeStyle=orthogonalEdgeStyle;rounded=0;orthogonalLoop=1;jettySize=auto;html=1;entryX=0.417;entryY=1.033;entryDx=0;entryDy=0;entryPerimeter=0;shape=flexArrow;strokeWidth=1;endSize=2;startSize=2;fillColor=#FFCCCC;" edge="1" parent="1" source="5g65gb1R4huNtyx6foxI-16" target="5g65gb1R4huNtyx6foxI-13">
          <mxGeometry relative="1" as="geometry" />
        </mxCell>
        <mxCell id="5g65gb1R4huNtyx6foxI-18" value="Pull" style="edgeLabel;html=1;align=center;verticalAlign=middle;resizable=0;points=[];" vertex="1" connectable="0" parent="5g65gb1R4huNtyx6foxI-17">
          <mxGeometry x="-0.012" y="-1" relative="1" as="geometry">
            <mxPoint as="offset" />
          </mxGeometry>
        </mxCell>
        <mxCell id="5g65gb1R4huNtyx6foxI-20" value="Cache" style="rounded=1;whiteSpace=wrap;html=1;fillColor=#f8cecc;strokeColor=#b85450;" vertex="1" parent="1">
          <mxGeometry x="540" y="420" width="120" height="60" as="geometry" />
        </mxCell>
        <mxCell id="5g65gb1R4huNtyx6foxI-23" style="edgeStyle=orthogonalEdgeStyle;rounded=1;orthogonalLoop=1;jettySize=auto;html=1;entryX=1;entryY=0.5;entryDx=0;entryDy=0;entryPerimeter=0;shape=link;endSize=4;startSize=4;strokeColor=#99FFFF;targetPerimeterSpacing=1;sourcePerimeterSpacing=1;" edge="1" parent="1" source="5g65gb1R4huNtyx6foxI-8" target="5g65gb1R4huNtyx6foxI-4">
          <mxGeometry relative="1" as="geometry">
            <Array as="points">
              <mxPoint x="810" y="320" />
              <mxPoint x="810" y="60" />
            </Array>
          </mxGeometry>
        </mxCell>
        <mxCell id="5g65gb1R4huNtyx6foxI-24" value="Historical&lt;div&gt;Info&lt;/div&gt;" style="edgeLabel;html=1;align=center;verticalAlign=middle;resizable=0;points=[];" vertex="1" connectable="0" parent="5g65gb1R4huNtyx6foxI-23">
          <mxGeometry x="0.4091" relative="1" as="geometry">
            <mxPoint as="offset" />
          </mxGeometry>
        </mxCell>
        <mxCell id="5g65gb1R4huNtyx6foxI-26" value="Millions ...." style="shape=umlActor;verticalLabelPosition=bottom;verticalAlign=top;html=1;outlineConnect=0;" vertex="1" parent="1">
          <mxGeometry x="40" y="400" width="30" height="60" as="geometry" />
        </mxCell>
        <mxCell id="5g65gb1R4huNtyx6foxI-28" style="edgeStyle=orthogonalEdgeStyle;rounded=0;orthogonalLoop=1;jettySize=auto;html=1;entryX=0.15;entryY=1.033;entryDx=0;entryDy=0;entryPerimeter=0;" edge="1" parent="1" source="5g65gb1R4huNtyx6foxI-26" target="5g65gb1R4huNtyx6foxI-8">
          <mxGeometry relative="1" as="geometry" />
        </mxCell>
        <mxCell id="5g65gb1R4huNtyx6foxI-30" style="edgeStyle=orthogonalEdgeStyle;rounded=0;orthogonalLoop=1;jettySize=auto;html=1;shape=flexArrow;strokeColor=#FFCCCC;fillColor=#FFCCCC;endSize=4;startSize=4;" edge="1" parent="1" source="5g65gb1R4huNtyx6foxI-29">
          <mxGeometry relative="1" as="geometry">
            <mxPoint x="690" y="290" as="targetPoint" />
          </mxGeometry>
        </mxCell>
        <mxCell id="5g65gb1R4huNtyx6foxI-31" value="Pull" style="edgeLabel;html=1;align=center;verticalAlign=middle;resizable=0;points=[];" vertex="1" connectable="0" parent="5g65gb1R4huNtyx6foxI-30">
          <mxGeometry x="0.0221" y="4" relative="1" as="geometry">
            <mxPoint as="offset" />
          </mxGeometry>
        </mxCell>
        <mxCell id="5g65gb1R4huNtyx6foxI-32" style="edgeStyle=orthogonalEdgeStyle;rounded=0;orthogonalLoop=1;jettySize=auto;html=1;exitX=0.5;exitY=1;exitDx=0;exitDy=0;" edge="1" parent="1" source="5g65gb1R4huNtyx6foxI-29">
          <mxGeometry relative="1" as="geometry">
            <mxPoint x="220" y="671" as="targetPoint" />
            <mxPoint x="710" y="590" as="sourcePoint" />
          </mxGeometry>
        </mxCell>
        <mxCell id="5g65gb1R4huNtyx6foxI-33" value="Message Airtel consumers" style="edgeLabel;html=1;align=center;verticalAlign=middle;resizable=0;points=[];" vertex="1" connectable="0" parent="5g65gb1R4huNtyx6foxI-32">
          <mxGeometry x="-0.0022" y="1" relative="1" as="geometry">
            <mxPoint as="offset" />
          </mxGeometry>
        </mxCell>
        <mxCell id="5g65gb1R4huNtyx6foxI-29" value="Airtel&lt;div&gt;Consumer&lt;/div&gt;" style="rounded=1;whiteSpace=wrap;html=1;fillColor=#d5e8d4;strokeColor=#82b366;" vertex="1" parent="1">
          <mxGeometry x="720" y="480" width="120" height="60" as="geometry" />
        </mxCell>
        <mxCell id="5g65gb1R4huNtyx6foxI-34" value="Millions of Airtel subscribers" style="shape=umlActor;verticalLabelPosition=bottom;verticalAlign=top;html=1;outlineConnect=0;" vertex="1" parent="1">
          <mxGeometry x="210" y="670" width="30" height="60" as="geometry" />
        </mxCell>
        <mxCell id="5g65gb1R4huNtyx6foxI-41" style="edgeStyle=orthogonalEdgeStyle;rounded=0;orthogonalLoop=1;jettySize=auto;html=1;entryX=0.5;entryY=0;entryDx=0;entryDy=0;" edge="1" parent="1" source="5g65gb1R4huNtyx6foxI-40" target="5g65gb1R4huNtyx6foxI-13">
          <mxGeometry relative="1" as="geometry" />
        </mxCell>
        <mxCell id="5g65gb1R4huNtyx6foxI-42" style="edgeStyle=orthogonalEdgeStyle;rounded=0;orthogonalLoop=1;jettySize=auto;html=1;" edge="1" parent="1" source="5g65gb1R4huNtyx6foxI-40" target="5g65gb1R4huNtyx6foxI-43">
          <mxGeometry relative="1" as="geometry">
            <mxPoint x="790" y="40" as="targetPoint" />
          </mxGeometry>
        </mxCell>
        <mxCell id="5g65gb1R4huNtyx6foxI-40" value="Processing&lt;div&gt;Consumer&lt;/div&gt;" style="rounded=1;whiteSpace=wrap;html=1;fillColor=#d5e8d4;strokeColor=#82b366;" vertex="1" parent="1">
          <mxGeometry x="730" y="90" width="120" height="60" as="geometry" />
        </mxCell>
        <mxCell id="5g65gb1R4huNtyx6foxI-43" value="DB" style="shape=cylinder3;whiteSpace=wrap;html=1;boundedLbl=1;backgroundOutline=1;size=15;" vertex="1" parent="1">
          <mxGeometry x="780" y="-10" width="40" height="50" as="geometry" />
        </mxCell>
      </root>
    </mxGraphModel>
  </diagram>
</mxfile>
